<?xml version="1.0" encoding="UTF-8"?>
<svg xmlns="http://www.w3.org/2000/svg" width="2000" height="1600" viewBox="0 0 2000 1600" role="img" aria-labelledby="title desc">
  <title id="title">融岗智训事件处理外壳与智能体群全景图</title>
  <desc id="desc">展示学生或教师行动如何经过命令门、世界结算、事件波、六组十四个智能体、审核门、岗位投影，并进入证据评价慢循环。</desc>

  <defs>
    <filter id="shadow" x="-20%" y="-20%" width="140%" height="150%">
      <feDropShadow dx="0" dy="5" stdDeviation="7" flood-color="#102A43" flood-opacity="0.10"/>
    </filter>
    <linearGradient id="headerGradient" x1="0" y1="0" x2="1" y2="0">
      <stop offset="0" stop-color="#123F68"/>
      <stop offset="0.58" stop-color="#245D88"/>
      <stop offset="1" stop-color="#2D7A73"/>
    </linearGradient>
    <linearGradient id="scenarioGradient" x1="0" y1="0" x2="1" y2="0">
      <stop offset="0" stop-color="#FFF9E9"/>
      <stop offset="1" stop-color="#FFF2CC"/>
    </linearGradient>
    <marker id="arrow" markerWidth="12" markerHeight="12" refX="10" refY="6" orient="auto" markerUnits="strokeWidth">
      <path d="M0,0 L12,6 L0,12 z" fill="#365E7D"/>
    </marker>
    <marker id="arrowOrange" markerWidth="12" markerHeight="12" refX="10" refY="6" orient="auto" markerUnits="strokeWidth">
      <path d="M0,0 L12,6 L0,12 z" fill="#C76F15"/>
    </marker>
    <marker id="arrowGrey" markerWidth="12" markerHeight="12" refX="10" refY="6" orient="auto" markerUnits="strokeWidth">
      <path d="M0,0 L12,6 L0,12 z" fill="#778899"/>
    </marker>
    <style>
      text {
        font-family: "Microsoft YaHei", "PingFang SC", "Noto Sans CJK SC", Arial, sans-serif;
        fill: #183246;
      }
      .page-title { font-size: 43px; font-weight: 800; fill: #FFFFFF; letter-spacing: 1px; }
      .page-subtitle { font-size: 21px; fill: #E9F4FA; }
      .section-title { font-size: 26px; font-weight: 800; }
      .card-title { font-size: 22px; font-weight: 800; }
      .group-title { font-size: 19px; font-weight: 800; }
      .body { font-size: 17px; }
      .body-strong { font-size: 17px; font-weight: 700; }
      .small { font-size: 14px; }
      .tiny { font-size: 12px; }
      .white { fill: #FFFFFF; }
      .muted { fill: #587083; }
      .blue-line { fill: none; stroke: #365E7D; stroke-width: 4; marker-end: url(#arrow); }
      .orange-line { fill: none; stroke: #C76F15; stroke-width: 4; marker-end: url(#arrowOrange); }
      .grey-dash { fill: none; stroke: #778899; stroke-width: 3; stroke-dasharray: 10 9; marker-end: url(#arrowGrey); }
      .thin-dash { fill: none; stroke: #8DA1AF; stroke-width: 2.5; stroke-dasharray: 8 8; }
      .stage-no { font-size: 18px; font-weight: 800; fill: #FFFFFF; }
      .badge-text { font-size: 12px; font-weight: 800; }
    </style>
  </defs>

  <rect width="2000" height="1600" fill="#F5F8FB"/>
  <rect x="0" y="0" width="2000" height="116" fill="url(#headerGradient)"/>
  <text x="72" y="52" class="page-title">融岗智训｜高水平智能体群 + 事件处理外壳</text>
  <text x="74" y="88" class="page-subtitle">模型负责建议与角色表达；事件外壳负责事实、时序、权限、后果、证据和回放</text>

  <g aria-label="legend">
    <rect x="1450" y="24" width="134" height="28" rx="14" fill="#E8F6EE"/>
    <circle cx="1469" cy="38" r="6" fill="#2F8A57"/>
    <text x="1482" y="43" class="badge-text" fill="#216640">当前已有机制</text>
    <rect x="1595" y="24" width="170" height="28" rx="14" fill="#FFF0DB"/>
    <circle cx="1614" cy="38" r="6" fill="#C76F15"/>
    <text x="1627" y="43" class="badge-text" fill="#8A4B08">本次设计显式化</text>
    <rect x="1776" y="24" width="151" height="28" rx="14" fill="#EEF1F4"/>
    <circle cx="1795" cy="38" r="6" fill="#738495"/>
    <text x="1808" y="43" class="badge-text" fill="#4B5F70">待独立扩展</text>
    <path d="M1456 76 H1511" class="blue-line"/>
    <text x="1523" y="81" class="small white">权威业务流</text>
    <path d="M1638 76 H1693" class="grey-dash"/>
    <text x="1705" y="81" class="small white">支撑或反馈流</text>
  </g>

  <!-- Scenario and rule package -->
  <g filter="url(#shadow)" aria-label="scenario package">
    <rect x="70" y="142" width="1860" height="126" rx="20" fill="url(#scenarioGradient)" stroke="#D6A837" stroke-width="2"/>
    <rect x="92" y="159" width="310" height="91" rx="14" fill="#FFF7E0" stroke="#E0BC64"/>
    <text x="112" y="191" class="section-title" fill="#6B4A00">版本化情境与规则包</text>
    <text x="112" y="221" class="body">教师配置并发布，当前会话固定版本</text>
    <rect x="112" y="229" width="82" height="18" rx="9" fill="#E8F6EE"/>
    <text x="124" y="242" class="tiny" fill="#216640">当前已有</text>

    <rect x="425" y="163" width="300" height="82" rx="12" fill="#FFFFFF" stroke="#E5C978"/>
    <text x="445" y="190" class="group-title">课程与岗位</text>
    <text x="445" y="216" class="body">目标、岗位契约、任务卡、节点产出</text>

    <rect x="745" y="163" width="330" height="82" rx="12" fill="#FFFFFF" stroke="#E5C978"/>
    <text x="765" y="190" class="group-title">世界与剧情</text>
    <text x="765" y="216" class="body">初始事实、事件路线、节奏、冷却、难度</text>

    <rect x="1095" y="163" width="330" height="82" rx="12" fill="#FFFFFF" stroke="#E5C978"/>
    <text x="1115" y="190" class="group-title">知识与能力</text>
    <text x="1115" y="216" class="body">分层知识、工具策略、模型与讯飞能力引用</text>

    <rect x="1445" y="163" width="450" height="82" rx="12" fill="#FFFFFF" stroke="#E5C978"/>
    <text x="1465" y="190" class="group-title">评价与人工门</text>
    <text x="1465" y="216" class="body">Rubric、证据要求、治理规则、审批策略、可见范围</text>
  </g>

  <!-- Input sources -->
  <g filter="url(#shadow)" aria-label="input sources">
    <rect x="55" y="318" width="275" height="640" rx="22" fill="#FFFFFF" stroke="#8DB9D9" stroke-width="2"/>
    <rect x="55" y="318" width="275" height="56" rx="22" fill="#DCEFFD"/>
    <path d="M55 352 H330" stroke="#DCEFFD" stroke-width="44"/>
    <text x="82" y="345" class="section-title" fill="#205A80">输入源</text>
    <text x="82" y="368" class="body-strong" fill="#205A80">谁让世界发生变化</text>

    <rect x="78" y="399" width="229" height="112" rx="14" fill="#EAF5FD" stroke="#8DB9D9"/>
    <text x="96" y="429" class="card-title" fill="#205A80">学生岗位行动</text>
    <text x="96" y="457" class="body">观察、采访、通讯、工具</text>
    <text x="96" y="482" class="body">材料、生产、提交、发布决策</text>

    <rect x="78" y="529" width="229" height="100" rx="14" fill="#EAF5FD" stroke="#8DB9D9"/>
    <text x="96" y="559" class="card-title" fill="#205A80">教师控制动作</text>
    <text x="96" y="587" class="body">配置、开班、干预、审核</text>
    <text x="96" y="612" class="body">终评、定向恢复、回放</text>

    <rect x="78" y="647" width="229" height="100" rx="14" fill="#F3F5F7" stroke="#A9B5BF"/>
    <text x="96" y="677" class="card-title" fill="#4B5F70">系统时间与状态</text>
    <text x="96" y="705" class="body">截止时间、冷却结束、重试到期</text>
    <text x="96" y="730" class="body">节点完成与恢复信号</text>

    <rect x="78" y="765" width="229" height="117" rx="14" fill="#EAF7EF" stroke="#72B38C"/>
    <text x="96" y="795" class="card-title" fill="#2E6B46">工具与外部观察</text>
    <text x="96" y="823" class="body">OCR、ASR、图片理解、内容审核</text>
    <text x="96" y="848" class="body">上传、异步任务、人工补录</text>
    <text x="96" y="873" class="small muted">提供方结果先是观察，不是世界事实</text>

    <rect x="78" y="902" width="229" height="33" rx="16" fill="#EEF4F8"/>
    <text x="95" y="924" class="small" fill="#405D70">统一进入服务端，不从模型旁路改页面</text>
  </g>

  <!-- Main shell background -->
  <rect x="350" y="302" width="1595" height="672" rx="26" fill="#FBFCFE" stroke="#CBD7E2" stroke-width="2"/>
  <text x="380" y="336" class="section-title" fill="#294E68">即时情境快循环｜一次行动如何变成可见后果</text>
  <text x="1040" y="336" class="small muted">快循环只处理当前事件波；评价与课程改进进入下方慢循环</text>

  <!-- Flow arrows behind cards -->
  <path d="M330 454 H375" class="blue-line"/>
  <path d="M675 454 H715" class="blue-line"/>
  <path d="M1015 454 H1055" class="blue-line"/>
  <path d="M1395 454 H1435" class="blue-line"/>
  <path d="M1625 530 V552 H1305 V614" class="orange-line"/>
  <path d="M1305 748 H1348" class="blue-line"/>
  <path d="M1588 748 H1610" class="blue-line"/>
  <path d="M1740 938 V1008 H195 V958" class="grey-dash"/>
  <text x="795" y="1002" class="body-strong" fill="#5E7180">学生看见新的任务、人物反应和环境后果后，再做下一步行动</text>

  <!-- Stage 1 -->
  <g filter="url(#shadow)" aria-label="action normalization">
    <rect x="375" y="370" width="300" height="168" rx="18" fill="#EAF5FD" stroke="#5C9BC5" stroke-width="2"/>
    <circle cx="405" cy="398" r="19" fill="#2E78A8"/>
    <text x="399" y="405" class="stage-no">1</text>
    <text x="435" y="406" class="card-title" fill="#205A80">动作接入与标准化</text>
    <text x="398" y="439" class="body">结构化按钮、岗位消息、文本、材料</text>
    <text x="398" y="466" class="body">统一形成 ActionCommand / ToolResult</text>
    <text x="398" y="493" class="small muted">保留原输入引用，不让模型补造身份</text>
    <rect x="398" y="507" width="112" height="20" rx="10" fill="#FFF0DB"/>
    <text x="412" y="521" class="tiny" fill="#8A4B08">设计显式化</text>
  </g>

  <!-- Stage 2 -->
  <g filter="url(#shadow)" aria-label="command gate">
    <rect x="715" y="370" width="300" height="168" rx="18" fill="#FFF7DE" stroke="#C89B28" stroke-width="2"/>
    <circle cx="745" cy="398" r="19" fill="#B68308"/>
    <text x="739" y="405" class="stage-no">2</text>
    <text x="775" y="406" class="card-title" fill="#705100">身份、权限与命令门</text>
    <text x="738" y="439" class="body">会话、团队、岗位、对象、状态版本</text>
    <text x="738" y="466" class="body">CSRF、引用、幂等键、教师门前置</text>
    <text x="738" y="493" class="small muted">失败即拒绝；浏览器不能自行声明 actor</text>
    <rect x="738" y="507" width="88" height="20" rx="10" fill="#E8F6EE"/>
    <text x="751" y="521" class="tiny" fill="#216640">当前已有</text>
  </g>

  <!-- Stage 3 -->
  <g filter="url(#shadow)" aria-label="world settlement">
    <rect x="1055" y="370" width="340" height="168" rx="18" fill="#FFF7DE" stroke="#C89B28" stroke-width="2"/>
    <circle cx="1085" cy="398" r="19" fill="#B68308"/>
    <text x="1079" y="405" class="stage-no">3</text>
    <text x="1115" y="406" class="card-title" fill="#705100">权威世界结算</text>
    <text x="1078" y="439" class="body">WorldEngine 以确定性 Reducer 计算</text>
    <text x="1078" y="466" class="body">同一提交：WorldEvent + Outbox</text>
    <text x="1078" y="493" class="small muted">只有这里能确认“已经发生”并推进 stateVersion</text>
    <rect x="1078" y="507" width="88" height="20" rx="10" fill="#E8F6EE"/>
    <text x="1091" y="521" class="tiny" fill="#216640">当前已有</text>
  </g>

  <!-- Stage 4 -->
  <g filter="url(#shadow)" aria-label="event wave coordinator">
    <rect x="1435" y="370" width="390" height="168" rx="18" fill="#FFF0DB" stroke="#D6812C" stroke-width="2"/>
    <circle cx="1465" cy="398" r="19" fill="#C76F15"/>
    <text x="1459" y="405" class="stage-no">4</text>
    <text x="1495" y="406" class="card-title" fill="#8A4B08">事件波与受影响集合</text>
    <text x="1458" y="439" class="body">按事件类型、订阅版本和角色受众选择分支</text>
    <text x="1458" y="466" class="body">优先级、冷却、去抖、因果深度、重试/死信</text>
    <text x="1458" y="493" class="small muted">只唤醒相关智能体；安全分支并行，世界写入串行</text>
    <rect x="1458" y="507" width="166" height="20" rx="10" fill="#FFF8EB"/>
    <text x="1471" y="521" class="tiny" fill="#8A4B08">已有基础 + 策略补强</text>
  </g>

  <!-- Agent core -->
  <g filter="url(#shadow)" aria-label="agent swarm core">
    <rect x="375" y="570" width="930" height="368" rx="22" fill="#F6F2FF" stroke="#8A6AD8" stroke-width="2.5"/>
    <circle cx="410" cy="602" r="19" fill="#7356BF"/>
    <text x="404" y="609" class="stage-no">5</text>
    <text x="440" y="610" class="section-title" fill="#4A348B">智能体群内核｜六组、十四个具名 AI 智能体</text>
    <text x="1045" y="608" class="small muted">所有输出都是结构化建议或候选</text>

    <rect x="398" y="634" width="205" height="106" rx="13" fill="#FFFFFF" stroke="#AD98E6"/>
    <text x="414" y="661" class="group-title" fill="#4A348B">A 教学导演</text>
    <text x="414" y="688" class="body">支架 / 挑战 / 等待 / 补证</text>
    <text x="414" y="714" class="small muted">TeachingDirective</text>

    <rect x="620" y="634" width="205" height="106" rx="13" fill="#FFFFFF" stroke="#AD98E6"/>
    <text x="636" y="661" class="group-title" fill="#4A348B">B 情境导演</text>
    <text x="636" y="688" class="body">白名单路线与职业事件</text>
    <text x="636" y="714" class="small muted">CandidateEvent</text>

    <rect x="842" y="634" width="438" height="106" rx="13" fill="#FFFFFF" stroke="#AD98E6"/>
    <text x="858" y="661" class="group-title" fill="#4A348B">C 岗位角色智能体群｜4 个</text>
    <text x="858" y="688" class="body">总编 · 采访对象 · 版权方 · 平台运营</text>
    <text x="858" y="714" class="small muted">RoleResponseIntent；必要时附受限动作意图</text>

    <rect x="398" y="756" width="300" height="104" rx="13" fill="#FFFFFF" stroke="#AD98E6"/>
    <text x="414" y="783" class="group-title" fill="#4A348B">D 四域治理智能体群｜4 个</text>
    <text x="414" y="810" class="body">事实 · 版权 · 内容安全 · 平台规则</text>
    <text x="414" y="836" class="small muted">固定材料版本，各自产生 Finding</text>

    <rect x="715" y="756" width="360" height="104" rx="13" fill="#FFFFFF" stroke="#AD98E6"/>
    <text x="731" y="783" class="group-title" fill="#4A348B">E 评价法庭｜3 个语义评价</text>
    <text x="731" y="810" class="body">证据充分性 · 作品质量 · 职业协作</text>
    <text x="731" y="836" class="small muted">另含程序规则评分，但不把程序算作 AI</text>

    <rect x="1092" y="756" width="188" height="104" rx="13" fill="#FFFFFF" stroke="#AD98E6"/>
    <text x="1108" y="783" class="group-title" fill="#4A348B">F 学习策展｜1 个</text>
    <text x="1108" y="810" class="body">仅生成候选</text>
    <text x="1108" y="836" class="small muted">pending_review</text>

    <rect x="398" y="872" width="882" height="56" rx="12" fill="#E8F6EE" stroke="#72B38C"/>
    <text x="418" y="894" class="small" fill="#2E6B46">共用支撑：六层上下文 · 双 ACL 分层 RAG · 角色私有记忆 · DeepSeek 测试</text>
    <text x="418" y="916" class="small" fill="#2E6B46">讯飞适配：星辰 · OCR · ASR · 图片理解 · 内容合规（统一能力端口）</text>
  </g>

  <!-- Consequence gates -->
  <g filter="url(#shadow)" aria-label="consequence gates">
    <rect x="1348" y="570" width="240" height="368" rx="22" fill="#FFECE8" stroke="#CC6A57" stroke-width="2"/>
    <circle cx="1378" cy="602" r="19" fill="#B9503D"/>
    <text x="1372" y="609" class="stage-no">6</text>
    <text x="1408" y="610" class="card-title" fill="#81392D">后果与门禁</text>
    <text x="1372" y="650" class="body-strong">程序重验</text>
    <text x="1372" y="677" class="body">Schema / 引用 / 受众</text>
    <text x="1372" y="702" class="body">状态版本 / 对象版本</text>
    <line x1="1372" y1="720" x2="1564" y2="720" stroke="#E3A297"/>
    <text x="1372" y="751" class="body-strong">确定性仲裁</text>
    <text x="1372" y="778" class="body">治理冲突 / 评分分歧</text>
    <line x1="1372" y1="796" x2="1564" y2="796" stroke="#E3A297"/>
    <text x="1372" y="827" class="body-strong">教师精确审核</text>
    <text x="1372" y="854" class="body">情境 · 治理 · 终评 · 学习</text>
    <line x1="1372" y1="872" x2="1564" y2="872" stroke="#E3A297"/>
    <text x="1372" y="903" class="small" fill="#81392D">通过后重新交给 WorldEngine</text>
    <text x="1372" y="924" class="small" fill="#81392D">模型不能自行把候选变事实</text>
  </g>

  <!-- Projection and feedback -->
  <g filter="url(#shadow)" aria-label="role visible feedback">
    <rect x="1610" y="570" width="280" height="368" rx="22" fill="#EAF5FD" stroke="#5C9BC5" stroke-width="2"/>
    <circle cx="1640" cy="602" r="19" fill="#2E78A8"/>
    <text x="1634" y="609" class="stage-no">7</text>
    <text x="1670" y="610" class="card-title" fill="#205A80">岗位可见反馈</text>
    <text x="1634" y="650" class="body-strong">世界投影驱动工作台</text>
    <text x="1634" y="682" class="body">场景与环境变化</text>
    <text x="1634" y="709" class="body">NPC 表情、立场与岗位消息</text>
    <text x="1634" y="736" class="body">新任务、倒计时与风险提示</text>
    <text x="1634" y="763" class="body">材料、工具结果与成果状态</text>
    <text x="1634" y="790" class="body">公开事实、舆情与平台反馈</text>
    <text x="1634" y="817" class="body">个人证据提示与阶段反馈</text>
    <line x1="1634" y1="838" x2="1866" y2="838" stroke="#9BC4DF"/>
    <text x="1634" y="868" class="small muted">共享经审核事实，保持岗位私有视野</text>
    <text x="1634" y="893" class="small muted">页面只消费 StateProjection</text>
    <text x="1634" y="918" class="small muted">没有“模型回复直接改世界”的旁路</text>
  </g>

  <!-- Slow loop -->
  <g aria-label="evidence and evaluation slow loop">
    <rect x="55" y="1050" width="1890" height="306" rx="26" fill="#FFFFFF" stroke="#B8C4CE" stroke-width="2"/>
    <text x="82" y="1090" class="section-title" fill="#364F60">教学评价慢循环｜每一步都留证据，但不阻塞学生的即时操作</text>
    <text x="850" y="1088" class="small muted">评价使用固定证据包；新知识只进入待审核候选，不回写当前会话历史</text>

    <path d="M333 1218 H363" class="blue-line"/>
    <path d="M638 1218 H668" class="blue-line"/>
    <path d="M943 1218 H973" class="blue-line"/>
    <path d="M1248 1218 H1278" class="blue-line"/>
    <path d="M1553 1218 H1583" class="blue-line"/>

    <g filter="url(#shadow)">
      <rect x="78" y="1125" width="255" height="185" rx="17" fill="#F3F5F7" stroke="#93A2AE"/>
      <circle cx="105" cy="1152" r="16" fill="#667987"/>
      <text x="100" y="1158" class="stage-no">A</text>
      <text x="133" y="1159" class="card-title" fill="#405563">过程证据采集</text>
      <text x="99" y="1194" class="body">行动、等待、返工、沟通</text>
      <text x="99" y="1221" class="body">材料、修订、工具、事件</text>
      <text x="99" y="1248" class="body">教师干预与模型降级</text>
      <text x="99" y="1280" class="small muted">证据带主体、时间、版本与引用</text>
    </g>

    <g filter="url(#shadow)">
      <rect x="383" y="1125" width="255" height="185" rx="17" fill="#FFF7DE" stroke="#C89B28"/>
      <circle cx="410" cy="1152" r="16" fill="#B68308"/>
      <text x="405" y="1158" class="stage-no">B</text>
      <text x="438" y="1159" class="card-title" fill="#705100">固定评价案件</text>
      <text x="404" y="1194" class="body">EvidenceBundle</text>
      <text x="404" y="1221" class="body">EvaluationCase</text>
      <text x="404" y="1248" class="body">Rubric / 证据引用 / 哈希</text>
      <text x="404" y="1280" class="small muted">评价开始后不偷换“最新稿”</text>
    </g>

    <g filter="url(#shadow)">
      <rect x="688" y="1125" width="255" height="185" rx="17" fill="#F6F2FF" stroke="#8A6AD8"/>
      <circle cx="715" cy="1152" r="16" fill="#7356BF"/>
      <text x="710" y="1158" class="stage-no">C</text>
      <text x="743" y="1159" class="card-title" fill="#4A348B">四路独立初评</text>
      <text x="709" y="1194" class="body">规则评分（程序）</text>
      <text x="709" y="1221" class="body">证据充分性（AI）</text>
      <text x="709" y="1248" class="body">作品质量 / 职业协作（AI）</text>
      <text x="709" y="1280" class="small muted">失败显式 unavailable，不伪造分数</text>
    </g>

    <g filter="url(#shadow)">
      <rect x="993" y="1125" width="255" height="185" rx="17" fill="#FFECE8" stroke="#CC6A57"/>
      <circle cx="1020" cy="1152" r="16" fill="#B9503D"/>
      <text x="1015" y="1158" class="stage-no">D</text>
      <text x="1048" y="1159" class="card-title" fill="#81392D">确定性仲裁</text>
      <text x="1014" y="1194" class="body">比较四路建议</text>
      <text x="1014" y="1221" class="body">识别证据不足与分歧</text>
      <text x="1014" y="1248" class="body">生成稳定 arbitration hash</text>
      <text x="1014" y="1280" class="small muted">不让大模型自己决定终评</text>
    </g>

    <g filter="url(#shadow)">
      <rect x="1298" y="1125" width="255" height="185" rx="17" fill="#EAF5FD" stroke="#5C9BC5"/>
      <circle cx="1325" cy="1152" r="16" fill="#2E78A8"/>
      <text x="1320" y="1158" class="stage-no">E</text>
      <text x="1353" y="1159" class="card-title" fill="#205A80">教师逐维复核</text>
      <text x="1319" y="1194" class="body">查看证据与分歧</text>
      <text x="1319" y="1221" class="body">确认、覆盖或退回补证</text>
      <text x="1319" y="1248" class="body">保留理由和建议差异</text>
      <text x="1319" y="1280" class="small muted">精确操作对象版本与哈希</text>
    </g>

    <g filter="url(#shadow)">
      <rect x="1603" y="1125" width="264" height="185" rx="17" fill="#EAF7EF" stroke="#72B38C"/>
      <circle cx="1630" cy="1152" r="16" fill="#2F8A57"/>
      <text x="1625" y="1158" class="stage-no">F</text>
      <text x="1658" y="1159" class="card-title" fill="#2E6B46">能力画像与改进</text>
      <text x="1624" y="1194" class="body">岗位能力、过程反馈、复盘建议</text>
      <text x="1624" y="1221" class="body">课程与情境改进候选</text>
      <text x="1624" y="1248" class="body">LearningCandidate</text>
      <text x="1624" y="1280" class="small" fill="#2E6B46">仅审核通过后进入新语义版本</text>
    </g>
  </g>

  <!-- Cross-cutting guarantees -->
  <g filter="url(#shadow)" aria-label="cross cutting guarantees">
    <rect x="55" y="1380" width="1890" height="148" rx="24" fill="#EDF2F6" stroke="#8093A2" stroke-width="2"/>
    <text x="82" y="1420" class="section-title" fill="#364F60">横切保障｜覆盖快循环和慢循环，但不替代业务裁决</text>

    <rect x="82" y="1443" width="335" height="62" rx="13" fill="#FFFFFF" stroke="#A8B5BF"/>
    <text x="101" y="1468" class="group-title">因果标识与可观测</text>
    <text x="101" y="1492" class="small muted">event / correlation / causation / run / tool trace</text>

    <rect x="438" y="1443" width="335" height="62" rx="13" fill="#FFFFFF" stroke="#A8B5BF"/>
    <text x="457" y="1468" class="group-title">双时间线与回放</text>
    <text x="457" y="1492" class="small muted">世界发生了什么；智能体为什么这样建议</text>

    <rect x="794" y="1443" width="335" height="62" rx="13" fill="#FFFFFF" stroke="#A8B5BF"/>
    <text x="813" y="1468" class="group-title">恢复与幂等</text>
    <text x="813" y="1492" class="small muted">Outbox、任务租约、重试、死信、检查点、备份</text>

    <rect x="1150" y="1443" width="335" height="62" rx="13" fill="#FFFFFF" stroke="#A8B5BF"/>
    <text x="1169" y="1468" class="group-title">安全与私有视野</text>
    <text x="1169" y="1492" class="small muted">服务端权限、双 ACL、受众投影、脱敏追踪</text>

    <rect x="1506" y="1443" width="361" height="62" rx="13" fill="#FFFFFF" stroke="#A8B5BF"/>
    <text x="1525" y="1468" class="group-title">版本与发布边界</text>
    <text x="1525" y="1492" class="small muted">情境、图、提示词、规则、知识和能力均固定版本</text>
  </g>

  <text x="70" y="1572" class="small muted">读图结论：不是“所有智能体围着聊天框讨论”，而是“权威世界接住行动，以事件波精准调度智能体，再把审核后的后果投影回职业场景”。</text>
  <text x="1930" y="1572" class="small muted" text-anchor="end">DOC-007 · V1.0.0 architecture view</text>
</svg>
